<svg width="692" height="8" viewBox="0 0 692 8" fill="none" xmlns="http://www.w3.org/2000/svg">
<path d="M1.6 4.8C0.716344 4.8 0 5.51634 0 6.4C0 7.28365 0.716344 8 1.6 8V4.8ZM1.6 8C4.49054 8 5.97101 6.23431 7.00412 5.05361C8.07101 3.83431 8.69053 3.2 10 3.2V0C7.10946 0 5.62899 1.76569 4.59588 2.94639C3.52899 4.16569 2.90946 4.8 1.6 4.8V8Z" fill="#ECD1FF" fill-opacity="0.45"/>
<path d="M10 3.2C11.3095 3.2 11.929 3.83431 12.9959 5.05361C14.029 6.23431 15.5095 8 18.4 8V4.8C17.0905 4.8 16.471 4.16569 15.4041 2.94639C14.371 1.76569 12.8905 0 10 0V3.2Z" fill="#ECD1FF" fill-opacity="0.45"/>
<path d="M18.4 8C21.2905 8 22.771 6.23431 23.8041 5.05361C24.871 3.83431 25.4905 3.2 26.8 3.2V0C23.9095 0 22.429 1.76569 21.3959 2.94639C20.329 4.16569 19.7095 4.8 18.4 4.8V8Z" fill="#ECD1FF" fill-opacity="0.45"/>
<path d="M26.8 3.2C28.1095 3.2 28.729 3.83431 29.7959 5.05361C30.829 6.23431 32.3095 8 35.2 8V4.8C33.8905 4.8 33.271 4.16569 32.2041 2.94639C31.171 1.76569 29.6905 0 26.8 0V3.2Z" fill="#ECD1FF" fill-opacity="0.45"/>
<path d="M35.2 8C38.0905 8 39.571 6.23431 40.6041 5.05361C41.671 3.83431 42.2905 3.2 43.6 3.2V0C40.7095 0 39.229 1.76569 38.1959 2.94639C37.129 4.16569 36.5095 4.8 35.2 4.8V8Z" fill="#ECD1FF" fill-opacity="0.45"/>
<path d="M43.6 3.2C44.9095 3.2 45.529 3.83431 46.5959 5.05361C47.629 6.23431 49.1095 8 52 8V4.8C50.6905 4.8 50.071 4.16569 49.0041 2.94639C47.971 1.76569 46.4905 0 43.6 0V3.2Z" fill="#ECD1FF" fill-opacity="0.45"/>
<path d="M52 8C54.8905 8 56.371 6.23431 57.4041 5.05361C58.471 3.83431 59.0905 3.2 60.4 3.2V0C57.5095 0 56.029 1.76569 54.9959 2.94639C53.929 4.16569 53.3095 4.8 52 4.8V8Z" fill="#ECD1FF" fill-opacity="0.45"/>
<path d="M60.4 3.2C61.7094 3.2 62.329 3.83431 63.3959 5.05361C64.429 6.23431 65.9094 8 68.8 8V4.8C67.4905 4.8 66.871 4.16569 65.8041 2.94639C64.771 1.76569 63.2905 0 60.4 0V3.2Z" fill="#ECD1FF" fill-opacity="0.45"/>
<path d="M68.8 8C71.6905 8 73.171 6.23431 74.2041 5.05361C75.271 3.83431 75.8905 3.2 77.2 3.2V0C74.3094 0 72.829 1.76569 71.7959 2.94639C70.729 4.16569 70.1095 4.8 68.8 4.8V8Z" fill="#ECD1FF" fill-opacity="0.45"/>
<path d="M77.2 3.2C78.5095 3.2 79.129 3.83431 80.1959 5.05361C81.229 6.23431 82.7094 8 85.6 8V4.8C84.2905 4.8 83.671 4.16569 82.6041 2.94639C81.571 1.76569 80.0905 0 77.2 0V3.2Z" fill="#ECD1FF" fill-opacity="0.45"/>
<path d="M85.6 8C88.4905 8 89.971 6.23431 91.0041 5.05361C92.071 3.83431 92.6905 3.2 94 3.2V0C91.1095 0 89.629 1.76569 88.5959 2.94639C87.529 4.16569 86.9095 4.8 85.6 4.8V8Z" fill="#ECD1FF" fill-opacity="0.45"/>
<path d="M94 3.2C95.3095 3.2 95.929 3.83431 96.9959 5.05361C98.029 6.23431 99.5095 8 102.4 8V4.8C101.091 4.8 100.471 4.16569 99.4041 2.94639C98.371 1.76569 96.8905 0 94 0V3.2Z" fill="#ECD1FF" fill-opacity="0.45"/>
<path d="M102.4 8C105.291 8 106.771 6.23431 107.804 5.05361C108.871 3.83431 109.491 3.2 110.8 3.2V0C107.909 0 106.429 1.76569 105.396 2.94639C104.329 4.16569 103.709 4.8 102.4 4.8V8Z" fill="#ECD1FF" fill-opacity="0.45"/>
<path d="M110.8 3.2C112.109 3.2 112.729 3.83431 113.796 5.05361C114.829 6.23431 116.309 8 119.2 8V4.8C117.891 4.8 117.271 4.16569 116.204 2.94639C115.171 1.76569 113.691 0 110.8 0V3.2Z" fill="#ECD1FF" fill-opacity="0.45"/>
<path d="M119.2 8C122.091 8 123.571 6.23431 124.604 5.05361C125.671 3.83431 126.291 3.2 127.6 3.2V0C124.709 0 123.229 1.76569 122.196 2.94639C121.129 4.16569 120.509 4.8 119.2 4.8V8Z" fill="#ECD1FF" fill-opacity="0.45"/>
<path d="M127.6 3.2C128.909 3.2 129.529 3.83431 130.596 5.05361C131.629 6.23431 133.109 8 136 8V4.8C134.691 4.8 134.071 4.16569 133.004 2.94639C131.971 1.76569 130.491 0 127.6 0V3.2Z" fill="#ECD1FF" fill-opacity="0.45"/>
<path d="M136 8C138.891 8 140.371 6.23431 141.404 5.05361C142.471 3.83431 143.091 3.2 144.4 3.2V0C141.509 0 140.029 1.76569 138.996 2.94639C137.929 4.16569 137.309 4.8 136 4.8V8Z" fill="#ECD1FF" fill-opacity="0.45"/>
<path d="M144.4 3.2C145.709 3.2 146.329 3.83431 147.396 5.05361C148.429 6.23431 149.909 8 152.8 8V4.8C151.491 4.8 150.871 4.16569 149.804 2.94639C148.771 1.76569 147.291 0 144.4 0V3.2Z" fill="#ECD1FF" fill-opacity="0.45"/>
<path d="M152.8 8C155.691 8 157.171 6.23431 158.204 5.05361C159.271 3.83431 159.891 3.2 161.2 3.2V0C158.309 0 156.829 1.76569 155.796 2.94639C154.729 4.16569 154.109 4.8 152.8 4.8V8Z" fill="#ECD1FF" fill-opacity="0.45"/>
<path d="M161.2 3.2C162.509 3.2 163.129 3.83431 164.196 5.05361C165.229 6.23431 166.709 8 169.6 8V4.8C168.291 4.8 167.671 4.16569 166.604 2.94639C165.571 1.76569 164.091 0 161.2 0V3.2Z" fill="#ECD1FF" fill-opacity="0.45"/>
<path d="M169.6 8C172.491 8 173.971 6.23431 175.004 5.05361C176.071 3.83431 176.691 3.2 178 3.2V0C175.109 0 173.629 1.76569 172.596 2.94639C171.529 4.16569 170.909 4.8 169.6 4.8V8Z" fill="#ECD1FF" fill-opacity="0.45"/>
<path d="M178 3.2C179.309 3.2 179.929 3.83431 180.996 5.05361C182.029 6.23431 183.509 8 186.4 8V4.8C185.09 4.8 184.471 4.16569 183.404 2.94639C182.371 1.76569 180.891 0 178 0V3.2Z" fill="#ECD1FF" fill-opacity="0.45"/>
<path d="M186.4 8C189.29 8 190.771 6.23431 191.804 5.05361C192.871 3.83431 193.49 3.2 194.8 3.2V0C191.909 0 190.429 1.76569 189.396 2.94639C188.329 4.16569 187.709 4.8 186.4 4.8V8Z" fill="#ECD1FF" fill-opacity="0.45"/>
<path d="M194.8 3.2C196.109 3.2 196.729 3.83431 197.796 5.05361C198.829 6.23431 200.309 8 203.2 8V4.8C201.89 4.8 201.271 4.16569 200.204 2.94639C199.171 1.76569 197.69 0 194.8 0V3.2Z" fill="#ECD1FF" fill-opacity="0.45"/>
<path d="M203.2 8C206.09 8 207.571 6.23431 208.604 5.05361C209.671 3.83431 210.29 3.2 211.6 3.2V0C208.709 0 207.229 1.76569 206.196 2.94639C205.129 4.16569 204.509 4.8 203.2 4.8V8Z" fill="#ECD1FF" fill-opacity="0.45"/>
<path d="M211.6 3.2C212.909 3.2 213.529 3.83431 214.596 5.05361C215.629 6.23431 217.109 8 220 8V4.8C218.69 4.8 218.071 4.16569 217.004 2.94639C215.971 1.76569 214.49 0 211.6 0V3.2Z" fill="#ECD1FF" fill-opacity="0.45"/>
<path d="M220 8C222.89 8 224.371 6.23431 225.404 5.05361C226.471 3.83431 227.09 3.2 228.4 3.2V0C225.509 0 224.029 1.76569 222.996 2.94639C221.929 4.16569 221.309 4.8 220 4.8V8Z" fill="#ECD1FF" fill-opacity="0.45"/>
<path d="M228.4 3.2C229.709 3.2 230.329 3.83431 231.396 5.05361C232.429 6.23431 233.909 8 236.8 8V4.8C235.49 4.8 234.871 4.16569 233.804 2.94639C232.771 1.76569 231.29 0 228.4 0V3.2Z" fill="#ECD1FF" fill-opacity="0.45"/>
<path d="M236.8 8C239.69 8 241.171 6.23431 242.204 5.05361C243.271 3.83431 243.89 3.2 245.2 3.2V0C242.309 0 240.829 1.76569 239.796 2.94639C238.729 4.16569 238.109 4.8 236.8 4.8V8Z" fill="#ECD1FF" fill-opacity="0.45"/>
<path d="M245.2 3.2C246.509 3.2 247.129 3.83431 248.196 5.05361C249.229 6.23431 250.709 8 253.6 8V4.8C252.29 4.8 251.671 4.16569 250.604 2.94639C249.571 1.76569 248.09 0 245.2 0V3.2Z" fill="#ECD1FF" fill-opacity="0.45"/>
<path d="M253.6 8C256.49 8 257.971 6.23431 259.004 5.05361C260.071 3.8343 260.69 3.2 262 3.2V0C259.109 0 257.629 1.7657 256.596 2.94639C255.529 4.16569 254.909 4.8 253.6 4.8V8Z" fill="#ECD1FF" fill-opacity="0.45"/>
<path d="M262 3.2C263.309 3.2 263.929 3.83431 264.996 5.05361C266.029 6.2343 267.509 8 270.4 8V4.8C269.09 4.8 268.471 4.1657 267.404 2.94639C266.371 1.76569 264.89 0 262 0V3.2Z" fill="#ECD1FF" fill-opacity="0.45"/>
<path d="M270.4 8C273.29 8 274.771 6.23431 275.804 5.05361C276.871 3.8343 277.49 3.2 278.8 3.2V0C275.909 0 274.429 1.7657 273.396 2.94639C272.329 4.16569 271.709 4.8 270.4 4.8V8Z" fill="#ECD1FF" fill-opacity="0.45"/>
<path d="M278.8 3.2C280.109 3.2 280.729 3.83431 281.796 5.05361C282.829 6.2343 284.309 8 287.2 8V4.8C285.89 4.8 285.271 4.1657 284.204 2.94639C283.171 1.76569 281.69 0 278.8 0V3.2Z" fill="#ECD1FF" fill-opacity="0.45"/>
<path d="M287.2 8C290.09 8 291.571 6.23431 292.604 5.05361C293.671 3.8343 294.29 3.2 295.6 3.2V0C292.709 0 291.229 1.7657 290.196 2.94639C289.129 4.16569 288.509 4.8 287.2 4.8V8Z" fill="#ECD1FF" fill-opacity="0.45"/>
<path d="M295.6 3.2C296.909 3.2 297.529 3.83431 298.596 5.05361C299.629 6.2343 301.109 8 304 8V4.8C302.69 4.8 302.071 4.1657 301.004 2.94639C299.971 1.76569 298.49 0 295.6 0V3.2Z" fill="#ECD1FF" fill-opacity="0.45"/>
<path d="M304 8C306.89 8 308.371 6.23431 309.404 5.05361C310.471 3.8343 311.09 3.2 312.4 3.2V0C309.509 0 308.029 1.7657 306.996 2.94639C305.929 4.16569 305.309 4.8 304 4.8V8Z" fill="#ECD1FF" fill-opacity="0.45"/>
<path d="M312.4 3.2C313.709 3.2 314.329 3.83431 315.396 5.05361C316.429 6.2343 317.909 8 320.8 8V4.8C319.49 4.8 318.871 4.1657 317.804 2.94639C316.771 1.76569 315.29 0 312.4 0V3.2Z" fill="#ECD1FF" fill-opacity="0.45"/>
<path d="M320.8 8C323.69 8 325.171 6.23431 326.204 5.05361C327.271 3.8343 327.89 3.2 329.2 3.2V0C326.309 0 324.829 1.7657 323.796 2.94639C322.729 4.16569 322.109 4.8 320.8 4.8V8Z" fill="#ECD1FF" fill-opacity="0.45"/>
<path d="M329.2 3.2C330.509 3.2 331.129 3.83431 332.196 5.05361C333.229 6.2343 334.709 8 337.6 8V4.8C336.29 4.8 335.671 4.1657 334.604 2.94639C333.571 1.76569 332.09 0 329.2 0V3.2Z" fill="#ECD1FF" fill-opacity="0.45"/>
<path d="M337.6 8C340.49 8 341.971 6.23431 343.004 5.05361C344.071 3.8343 344.69 3.2 346 3.2V0C343.109 0 341.629 1.7657 340.596 2.94639C339.529 4.16569 338.909 4.8 337.6 4.8V8Z" fill="#ECD1FF" fill-opacity="0.45"/>
<path d="M346 3.2C347.309 3.2 347.929 3.83431 348.996 5.05361C350.029 6.2343 351.509 8 354.4 8V4.8C353.09 4.8 352.471 4.1657 351.404 2.94639C350.371 1.76569 348.89 0 346 0V3.2Z" fill="#ECD1FF" fill-opacity="0.45"/>
<path d="M354.4 8C357.29 8 358.771 6.23431 359.804 5.05361C360.871 3.8343 361.49 3.2 362.8 3.2V0C359.909 0 358.429 1.7657 357.396 2.94639C356.329 4.16569 355.709 4.8 354.4 4.8V8Z" fill="#ECD1FF" fill-opacity="0.45"/>
<path d="M362.8 3.2C364.109 3.2 364.729 3.83431 365.796 5.05361C366.829 6.2343 368.309 8 371.2 8V4.8C369.89 4.8 369.271 4.1657 368.204 2.94639C367.171 1.76569 365.69 0 362.8 0V3.2Z" fill="#ECD1FF" fill-opacity="0.45"/>
<path d="M371.2 8C374.09 8 375.571 6.23431 376.604 5.05361C377.671 3.8343 378.29 3.2 379.6 3.2V0C376.709 0 375.229 1.7657 374.196 2.94639C373.129 4.16569 372.509 4.8 371.2 4.8V8Z" fill="#ECD1FF" fill-opacity="0.45"/>
<path d="M379.6 3.2C380.909 3.2 381.529 3.83431 382.596 5.05361C383.629 6.2343 385.109 8 388 8V4.8C386.69 4.8 386.071 4.1657 385.004 2.94639C383.971 1.76569 382.49 0 379.6 0V3.2Z" fill="#ECD1FF" fill-opacity="0.45"/>
<path d="M388 8C390.89 8 392.371 6.23431 393.404 5.05361C394.471 3.8343 395.09 3.2 396.4 3.2V0C393.509 0 392.029 1.7657 390.996 2.94639C389.929 4.16569 389.309 4.8 388 4.8V8Z" fill="#ECD1FF" fill-opacity="0.45"/>
<path d="M396.4 3.2C397.709 3.2 398.329 3.83431 399.396 5.05361C400.429 6.2343 401.909 8 404.8 8V4.8C403.49 4.8 402.871 4.1657 401.804 2.94639C400.771 1.76569 399.29 0 396.4 0V3.2Z" fill="#ECD1FF" fill-opacity="0.45"/>
<path d="M404.8 8C407.69 8 409.171 6.23431 410.204 5.05361C411.271 3.8343 411.89 3.2 413.2 3.2V0C410.309 0 408.829 1.7657 407.796 2.94639C406.729 4.16569 406.109 4.8 404.8 4.8V8Z" fill="#ECD1FF" fill-opacity="0.45"/>
<path d="M413.2 3.2C414.509 3.2 415.129 3.83431 416.196 5.05361C417.229 6.2343 418.709 8 421.6 8V4.8C420.29 4.8 419.671 4.1657 418.604 2.94639C417.571 1.76569 416.09 0 413.2 0V3.2Z" fill="#ECD1FF" fill-opacity="0.45"/>
<path d="M421.6 8C424.49 8 425.971 6.23431 427.004 5.05361C428.071 3.8343 428.69 3.2 430 3.2V0C427.109 0 425.629 1.7657 424.596 2.94639C423.529 4.16569 422.909 4.8 421.6 4.8V8Z" fill="#ECD1FF" fill-opacity="0.45"/>
<path d="M430 3.2C431.309 3.2 431.929 3.83431 432.996 5.05361C434.029 6.2343 435.509 8 438.4 8V4.8C437.09 4.8 436.471 4.1657 435.404 2.94639C434.371 1.76569 432.89 0 430 0V3.2Z" fill="#ECD1FF" fill-opacity="0.45"/>
<path d="M438.4 8C441.29 8 442.771 6.23431 443.804 5.05361C444.871 3.8343 445.49 3.2 446.8 3.2V0C443.909 0 442.429 1.7657 441.396 2.94639C440.329 4.16569 439.709 4.8 438.4 4.8V8Z" fill="#ECD1FF" fill-opacity="0.45"/>
<path d="M446.8 3.2C448.109 3.2 448.729 3.83431 449.796 5.05361C450.829 6.2343 452.309 8 455.2 8V4.8C453.89 4.8 453.271 4.1657 452.204 2.94639C451.171 1.76569 449.69 0 446.8 0V3.2Z" fill="#ECD1FF" fill-opacity="0.45"/>
<path d="M455.2 8C458.09 8 459.571 6.23431 460.604 5.05361C461.671 3.8343 462.29 3.2 463.6 3.2V0C460.709 0 459.229 1.7657 458.196 2.94639C457.129 4.16569 456.509 4.8 455.2 4.8V8Z" fill="#ECD1FF" fill-opacity="0.45"/>
<path d="M463.6 3.2C464.909 3.2 465.529 3.83431 466.596 5.05361C467.629 6.2343 469.109 8 472 8V4.8C470.69 4.8 470.071 4.1657 469.004 2.94639C467.971 1.76569 466.49 0 463.6 0V3.2Z" fill="#ECD1FF" fill-opacity="0.45"/>
<path d="M472 8C474.89 8 476.371 6.23431 477.404 5.05361C478.471 3.8343 479.09 3.2 480.4 3.2V0C477.509 0 476.029 1.7657 474.996 2.94639C473.929 4.16569 473.309 4.8 472 4.8V8Z" fill="#ECD1FF" fill-opacity="0.45"/>
<path d="M480.4 3.2C481.709 3.2 482.329 3.83431 483.396 5.05361C484.429 6.2343 485.909 8 488.8 8V4.8C487.49 4.8 486.871 4.1657 485.804 2.94639C484.771 1.76569 483.29 0 480.4 0V3.2Z" fill="#ECD1FF" fill-opacity="0.45"/>
<path d="M488.8 8C491.69 8 493.171 6.23431 494.204 5.05361C495.271 3.8343 495.89 3.2 497.2 3.2V0C494.309 0 492.829 1.7657 491.796 2.94639C490.729 4.16569 490.109 4.8 488.8 4.8V8Z" fill="#ECD1FF" fill-opacity="0.45"/>
<path d="M497.2 3.2C498.509 3.2 499.129 3.83431 500.196 5.05361C501.229 6.2343 502.709 8 505.6 8V4.8C504.29 4.8 503.671 4.1657 502.604 2.94639C501.571 1.76569 500.09 0 497.2 0V3.2Z" fill="#ECD1FF" fill-opacity="0.45"/>
<path d="M505.6 8C508.49 8 509.971 6.23431 511.004 5.05361C512.071 3.8343 512.69 3.2 514 3.2V0C511.109 0 509.629 1.7657 508.596 2.94639C507.529 4.16569 506.909 4.8 505.6 4.8V8Z" fill="#ECD1FF" fill-opacity="0.45"/>
<path d="M514 3.2C515.309 3.2 515.929 3.83431 516.996 5.05361C518.029 6.23431 519.509 8 522.4 8V4.8C521.09 4.8 520.471 4.16569 519.404 2.94639C518.371 1.76569 516.89 0 514 0V3.2Z" fill="#ECD1FF" fill-opacity="0.45"/>
<path d="M522.4 8C525.29 8 526.771 6.23431 527.804 5.05361C528.871 3.83431 529.49 3.2 530.8 3.2V0C527.909 0 526.429 1.76569 525.396 2.94639C524.329 4.16569 523.709 4.8 522.4 4.8V8Z" fill="#ECD1FF" fill-opacity="0.45"/>
<path d="M530.8 3.2C532.109 3.2 532.729 3.83431 533.796 5.05361C534.829 6.23431 536.309 8 539.2 8V4.8C537.89 4.8 537.271 4.16569 536.204 2.94639C535.171 1.76569 533.69 0 530.8 0V3.2Z" fill="#ECD1FF" fill-opacity="0.45"/>
<path d="M539.2 8C542.09 8 543.571 6.23431 544.604 5.05361C545.671 3.83431 546.29 3.2 547.6 3.2V0C544.709 0 543.229 1.76569 542.196 2.94639C541.129 4.16569 540.509 4.8 539.2 4.8V8Z" fill="#ECD1FF" fill-opacity="0.45"/>
<path d="M547.6 3.2C548.909 3.2 549.529 3.83431 550.596 5.05361C551.629 6.23431 553.109 8 556 8V4.8C554.69 4.8 554.071 4.16569 553.004 2.94639C551.971 1.76569 550.49 0 547.6 0V3.2Z" fill="#ECD1FF" fill-opacity="0.45"/>
<path d="M556 8C558.89 8 560.371 6.23431 561.404 5.05361C562.471 3.83431 563.09 3.2 564.4 3.2V0C561.509 0 560.029 1.76569 558.996 2.94639C557.929 4.16569 557.309 4.8 556 4.8V8Z" fill="#ECD1FF" fill-opacity="0.45"/>
<path d="M564.4 3.2C565.709 3.2 566.329 3.83431 567.396 5.05361C568.429 6.23431 569.909 8 572.8 8V4.8C571.49 4.8 570.871 4.16569 569.804 2.94639C568.771 1.76569 567.29 0 564.4 0V3.2Z" fill="#ECD1FF" fill-opacity="0.45"/>
<path d="M572.8 8C575.69 8 577.171 6.23431 578.204 5.05361C579.271 3.83431 579.89 3.2 581.2 3.2V0C578.309 0 576.829 1.76569 575.796 2.94639C574.729 4.16569 574.109 4.8 572.8 4.8V8Z" fill="#ECD1FF" fill-opacity="0.45"/>
<path d="M581.2 3.2C582.509 3.2 583.129 3.83431 584.196 5.05361C585.229 6.23431 586.709 8 589.6 8V4.8C588.29 4.8 587.671 4.16569 586.604 2.94639C585.571 1.76569 584.09 0 581.2 0V3.2Z" fill="#ECD1FF" fill-opacity="0.45"/>
<path d="M589.6 8C592.49 8 593.971 6.23431 595.004 5.05361C596.071 3.83431 596.69 3.2 598 3.2V0C595.109 0 593.629 1.76569 592.596 2.94639C591.529 4.16569 590.909 4.8 589.6 4.8V8Z" fill="#ECD1FF" fill-opacity="0.45"/>
<path d="M598 3.2C599.309 3.2 599.929 3.83431 600.996 5.05361C602.029 6.23431 603.509 8 606.4 8V4.8C605.091 4.8 604.471 4.16569 603.404 2.94639C602.371 1.76569 600.891 0 598 0V3.2Z" fill="#ECD1FF" fill-opacity="0.45"/>
<path d="M606.4 8C609.291 8 610.771 6.23431 611.804 5.05361C612.871 3.83431 613.491 3.2 614.8 3.2V0C611.909 0 610.429 1.76569 609.396 2.94639C608.329 4.16569 607.709 4.8 606.4 4.8V8Z" fill="#ECD1FF" fill-opacity="0.45"/>
<path d="M614.8 3.2C616.109 3.2 616.729 3.83431 617.796 5.05361C618.829 6.23431 620.309 8 623.2 8V4.8C621.891 4.8 621.271 4.16569 620.204 2.94639C619.171 1.76569 617.691 0 614.8 0V3.2Z" fill="#ECD1FF" fill-opacity="0.45"/>
<path d="M623.2 8C626.091 8 627.571 6.23431 628.604 5.05361C629.671 3.83431 630.291 3.2 631.6 3.2V0C628.709 0 627.229 1.76569 626.196 2.94639C625.129 4.16569 624.509 4.8 623.2 4.8V8Z" fill="#ECD1FF" fill-opacity="0.45"/>
<path d="M631.6 3.2C632.909 3.2 633.529 3.83431 634.596 5.05361C635.629 6.23431 637.109 8 640 8V4.8C638.691 4.8 638.071 4.16569 637.004 2.94639C635.971 1.76569 634.491 0 631.6 0V3.2Z" fill="#ECD1FF" fill-opacity="0.45"/>
<path d="M640 8C642.891 8 644.371 6.23431 645.404 5.05361C646.471 3.83431 647.091 3.2 648.4 3.2V0C645.51 0 644.029 1.76569 642.996 2.94639C641.929 4.16569 641.31 4.8 640 4.8V8Z" fill="#ECD1FF" fill-opacity="0.45"/>
<path d="M648.4 3.2C649.71 3.2 650.329 3.83431 651.396 5.05361C652.429 6.23431 653.91 8 656.8 8V4.8C655.491 4.8 654.871 4.16569 653.804 2.94639C652.771 1.76569 651.291 0 648.4 0V3.2Z" fill="#ECD1FF" fill-opacity="0.45"/>
<path d="M656.8 8C659.691 8 661.171 6.23431 662.204 5.05361C663.271 3.83431 663.891 3.2 665.2 3.2V0C662.31 0 660.829 1.76569 659.796 2.94639C658.729 4.16569 658.11 4.8 656.8 4.8V8Z" fill="#ECD1FF" fill-opacity="0.45"/>
<path d="M665.2 3.2C666.51 3.2 667.129 3.83431 668.196 5.05361C669.229 6.23431 670.71 8 673.6 8V4.8C672.291 4.8 671.671 4.16569 670.604 2.94639C669.571 1.76569 668.091 0 665.2 0V3.2Z" fill="#ECD1FF" fill-opacity="0.45"/>
<path d="M673.6 8C676.491 8 677.971 6.23431 679.004 5.05361C680.071 3.83431 680.691 3.2 682 3.2V0C679.11 0 677.629 1.76569 676.596 2.94639C675.529 4.16569 674.91 4.8 673.6 4.8V8Z" fill="#ECD1FF" fill-opacity="0.45"/>
<path d="M682 3.2C683.31 3.2 683.929 3.83431 684.996 5.05361C686.029 6.23431 687.51 8 690.4 8V4.8C689.091 4.8 688.471 4.16569 687.404 2.94639C686.371 1.76569 684.891 0 682 0V3.2ZM690.4 8C691.284 8 692 7.28365 692 6.4C692 5.51634 691.284 4.8 690.4 4.8V8Z" fill="#ECD1FF" fill-opacity="0.45"/>
</svg>
