<svg width="44" height="36" viewBox="0 0 44 36" fill="none" xmlns="http://www.w3.org/2000/svg">
<path d="M21.9452 4C16.2567 4 11.4388 7.24751 9.14425 11.875H4.97982C7.50306 4.90075 14.211 0 21.9452 0C29.6794 0 36.3873 4.90075 38.9105 11.875H34.7461C32.4516 7.24751 27.6336 4 21.9452 4Z" fill="#ECD1FF"/>
<path d="M4.97982 24.125H9.14425C11.4388 28.7525 16.2567 32 21.9452 32C27.6336 32 32.4516 28.7525 34.7461 24.125H38.9105C36.3873 31.0993 29.6794 36 21.9452 36C14.211 36 7.50306 31.0993 4.97982 24.125Z" fill="#ECD1FF"/>
<path d="M6.81766 21.2386C2.90386 18.8545 4.21894e-07 15.2621 0 10.875L3.79456 10.875C3.79456 13.2298 5.37685 15.7411 8.71619 17.7752C12.0058 19.7791 16.6761 21.0824 21.9375 21.0824C27.1989 21.0824 31.8692 19.7791 35.1588 17.7752C38.4981 15.7411 40.0804 13.2298 40.0804 10.875H43.875C43.875 15.2621 40.9711 18.8545 37.0573 21.2386C33.0938 23.653 27.744 25.0824 21.9375 25.0824C16.131 25.0824 10.7812 23.653 6.81766 21.2386Z" fill="#ECD1FF"/>
</svg>