<svg width="720" height="301" viewBox="0 0 720 301" fill="none" xmlns="http://www.w3.org/2000/svg">
<path d="M148.921 301C128.02 301 108.555 297.216 90.5281 289.649C72.5009 282.081 56.6944 271.513 43.1086 257.944C29.5229 244.375 18.9417 228.457 11.365 210.191C3.78834 191.925 0 171.963 0 150.304C0 128.646 3.6577 108.684 10.9731 90.4174C18.2885 71.8903 28.6085 55.9727 41.933 42.6645C55.2574 29.0954 70.8027 18.6576 88.5687 11.3511C106.596 3.7837 126.191 0 147.353 0C168.516 0 187.457 3.52276 204.178 10.5683C221.16 17.6138 235.53 27.0078 247.287 38.7503C259.044 50.4928 267.404 63.5401 272.368 77.8921L218.678 103.726C213.714 89.6346 204.962 78.0225 192.421 68.8895C180.142 59.4954 165.119 54.7984 147.353 54.7984C130.11 54.7984 114.956 58.8431 101.893 66.9324C88.8299 75.0217 78.6406 86.2423 71.3252 100.594C64.2711 114.685 60.744 131.255 60.744 150.304C60.744 169.353 64.5323 186.054 72.109 200.406C79.6857 214.758 90.0056 225.978 103.069 234.068C116.393 242.157 131.677 246.202 148.921 246.202C162.245 246.202 174.655 243.723 186.151 238.765C197.908 233.546 207.313 226.109 214.368 216.454C221.683 206.799 225.341 195.187 225.341 181.618V157.35L253.165 180.835H147.353V129.951H286.085V160.873C286.085 184.619 282.166 205.364 274.328 223.108C266.49 240.591 255.909 255.204 242.584 266.947C229.521 278.428 214.759 287.039 198.3 292.78C182.101 298.26 165.642 301 148.921 301Z" fill="white"/>
<path d="M293.417 296.303V82.5891H348.283V133.865L344.364 126.428C349.067 108.423 356.774 96.2887 367.486 90.026C378.459 83.5024 391.392 80.2406 406.284 80.2406H418.824V131.125H400.405C386.036 131.125 374.409 135.561 365.526 144.433C356.643 153.044 352.202 165.309 352.202 181.226V296.303H293.417Z" fill="white"/>
<path d="M424.994 296.303L424.83 80.2406H483.614L483.778 296.303H424.994ZM424.994 63.0182V5.08843H483.614V63.0182H424.994Z" fill="white"/>
<path d="M600.08 301C579.178 301 560.498 296.042 544.038 286.126C527.579 276.21 514.516 262.772 504.849 245.81C495.443 228.849 490.74 210.061 490.74 189.446C490.74 168.57 495.574 149.782 505.241 133.082C514.907 116.12 527.971 102.682 544.43 92.7659C560.89 82.85 579.309 77.8921 599.688 77.8921C615.364 77.8921 629.211 80.8929 641.229 86.8947C653.508 92.6355 663.175 100.855 670.229 111.554L661.216 123.296V0H720V296.303H665.134V257.161L670.621 269.295C663.306 279.733 653.378 287.692 640.837 293.172C628.296 298.391 614.71 301 600.08 301ZM607.134 248.159C617.846 248.159 627.251 245.68 635.35 240.722C643.45 235.764 649.72 228.849 654.161 219.977C658.864 211.104 661.216 200.928 661.216 189.446C661.216 177.964 658.864 167.788 654.161 158.915C649.72 150.043 643.45 143.128 635.35 138.17C627.251 133.212 617.846 130.733 607.134 130.733C596.422 130.733 586.755 133.343 578.133 138.562C569.773 143.52 563.241 150.435 558.539 159.307C553.836 167.918 551.484 177.964 551.484 189.446C551.484 200.928 553.836 211.104 558.539 219.977C563.241 228.849 569.773 235.764 578.133 240.722C586.755 245.68 596.422 248.159 607.134 248.159Z" fill="white"/>
</svg>
