<svg width="306" height="191" viewBox="0 0 306 191" fill="none" xmlns="http://www.w3.org/2000/svg">
<g filter="url(#filter0_i_1393_125)">
<path d="M148.553 2.26136C149.126 -0.753787 156.126 -0.753787 156.699 2.26136L161.501 27.5557C167.702 60.2175 208.904 85.9689 261.162 89.8443L301.633 92.8456C306.458 93.2037 306.458 97.5789 301.633 97.937L261.162 100.938C208.904 104.814 167.702 130.565 161.501 163.227L156.699 188.521C156.126 191.536 149.126 191.536 148.553 188.521L143.751 163.227C137.55 130.565 96.3481 104.814 44.0892 100.938L3.61818 97.937C-1.20606 97.5789 -1.20606 93.2037 3.61818 92.8456L44.0892 89.8443C96.3481 85.9689 137.55 60.2175 143.751 27.5557L148.553 2.26136Z" fill="url(#paint0_linear_1393_125)" style="mix-blend-mode:hard-light"/>
<path d="M148.553 2.26136C149.126 -0.753787 156.126 -0.753787 156.699 2.26136L161.501 27.5557C167.702 60.2175 208.904 85.9689 261.162 89.8443L301.633 92.8456C306.458 93.2037 306.458 97.5789 301.633 97.937L261.162 100.938C208.904 104.814 167.702 130.565 161.501 163.227L156.699 188.521C156.126 191.536 149.126 191.536 148.553 188.521L143.751 163.227C137.55 130.565 96.3481 104.814 44.0892 100.938L3.61818 97.937C-1.20606 97.5789 -1.20606 93.2037 3.61818 92.8456L44.0892 89.8443C96.3481 85.9689 137.55 60.2175 143.751 27.5557L148.553 2.26136Z" fill="#FF0000" fill-opacity="0.33" style="mix-blend-mode:saturation"/>
</g>
<path d="M152.626 0.5C153.514 0.5 154.38 0.677967 155.04 1.01172C155.699 1.34502 156.103 1.80303 156.208 2.35449L161.01 27.6494C164.144 44.1606 176.113 58.8675 193.795 69.9189C211.482 80.9734 234.928 88.4 261.125 90.3428L301.597 93.3447C303.909 93.5165 304.752 94.6058 304.752 95.3916C304.752 96.1774 303.909 97.2668 301.597 97.4385L261.125 100.439C234.928 102.382 211.482 109.809 193.795 120.863C176.113 131.915 164.145 146.622 161.01 163.133L156.208 188.428C156.103 188.979 155.699 189.437 155.04 189.771C154.38 190.104 153.514 190.282 152.626 190.282C151.738 190.282 150.873 190.104 150.213 189.771C149.553 189.437 149.149 188.979 149.044 188.428L144.242 163.133C141.107 146.622 129.139 131.915 111.457 120.863C93.7698 109.809 70.3231 102.382 44.126 100.439L3.65527 97.4385C1.34288 97.2668 0.500226 96.1774 0.5 95.3916C0.5 94.6057 1.34257 93.5164 3.65527 93.3447L44.126 90.3428C70.3231 88.4 93.7698 80.9735 111.457 69.9189C129.139 58.8675 141.107 44.1606 144.242 27.6494L149.044 2.35449C149.149 1.80293 149.553 1.34504 150.213 1.01172C150.873 0.678083 151.738 0.500013 152.626 0.5Z" stroke="white" stroke-opacity="0.17"/>
<defs>
<filter id="filter0_i_1393_125" x="0" y="0" width="305.252" height="194.782" filterUnits="userSpaceOnUse" color-interpolation-filters="sRGB">
<feFlood flood-opacity="0" result="BackgroundImageFix"/>
<feBlend mode="normal" in="SourceGraphic" in2="BackgroundImageFix" result="shape"/>
<feColorMatrix in="SourceAlpha" type="matrix" values="0 0 0 0 0 0 0 0 0 0 0 0 0 0 0 0 0 0 127 0" result="hardAlpha"/>
<feOffset dy="4"/>
<feGaussianBlur stdDeviation="4"/>
<feComposite in2="hardAlpha" operator="arithmetic" k2="-1" k3="1"/>
<feColorMatrix type="matrix" values="0 0 0 0 1 0 0 0 0 1 0 0 0 0 1 0 0 0 0.64 0"/>
<feBlend mode="normal" in2="shape" result="effect1_innerShadow_1393_125"/>
</filter>
<linearGradient id="paint0_linear_1393_125" x1="152.626" y1="0" x2="152.626" y2="190.783" gradientUnits="userSpaceOnUse">
<stop stop-color="white"/>
<stop offset="1" stop-color="#ACACAC"/>
</linearGradient>
</defs>
</svg>
